<?xml version="1.0" encoding="utf-8"?>
<!-- Generator: Adobe Illustrator 25.0.0, SVG Export Plug-In . SVG Version: 6.00 Build 0)  -->
<svg version="1.1" id="Layer_1" xmlns="http://www.w3.org/2000/svg" xmlns:xlink="http://www.w3.org/1999/xlink" x="0px" y="0px"
	 viewBox="0 0 100 100" style="enable-background:new 0 0 100 100;" xml:space="preserve">
<style type="text/css">
	.st0{fill:none;}
	.st1{fill:#B59C00;}
	.st2{fill:#9C9400;}
	.st3{fill:url(#Background_1_);}
	.st4{fill:none;stroke:#000000;stroke-width:0.4;}
	.st5{fill:none;stroke:#FFFFFF;stroke-width:6;}
	.st6{fill-rule:evenodd;clip-rule:evenodd;}
	.st7{fill:#FFFFFF;stroke:#000000;stroke-miterlimit:10;}
	.st8{font-family:'Mushin-ExtraBold';}
	.st9{font-size:9px;}
	.st10{letter-spacing:1;}
</style>
<pattern  y="100" width="8" height="8" patternUnits="userSpaceOnUse" id="Background_2_" viewBox="0 -8 8 8" style="overflow:visible;">
	<g>
		<rect y="-8" class="st0" width="8" height="8"/>
		<g>
			<rect y="-8" class="st0" width="8" height="8"/>
			<g>
				<rect y="-8" class="st0" width="8" height="8"/>
				<rect y="-8" class="st1" width="8" height="8"/>
				<rect x="1" y="-2" class="st2" width="1" height="1"/>
				<rect x="3" y="-1" class="st2" width="1" height="1"/>
				<rect x="6" y="-2" class="st2" width="1" height="1"/>
				<rect y="-5" class="st2" width="1" height="1"/>
				<rect x="2" y="-4" class="st2" width="1" height="1"/>
				<rect x="5" y="-6" class="st2" width="1" height="1"/>
				<rect x="7" y="-7" class="st2" width="1" height="1"/>
				<rect x="4" y="-8" class="st2" width="1" height="1"/>
				<rect x="1" y="-7" class="st2" width="1" height="1"/>
			</g>
		</g>
	</g>
</pattern>
<g id="Circle">
	<pattern  id="Background_1_" xlink:href="#Background_2_" patternTransform="matrix(1 0 0 -1 21 -32203)">
	</pattern>
	<circle id="Background" class="st3" cx="50" cy="50" r="40"/>
	<circle id="Border" class="st4" cx="50" cy="50" r="42"/>
</g>
<g id="_x33_d">
	<path class="st5" d="M25.5,24.7v5.2h13c-2.7,3.3-5.4,6.6-8.1,10v5.2h10.2v25h-15v5.2h19.6V39.9h-9.7c4.1-5.1,8.2-10.1,12.3-15.2
		H25.5z M70,24.7v15.2H54.6v35.4h19.9V24.7H70z M70,70.1H59.3v-25H70V70.1z"/>
	<path class="st6" d="M25.5,24.7v5.2h13c-2.7,3.3-5.4,6.6-8.1,10v5.2h10.2v25h-15v5.2h19.6V39.9h-9.7c4.1-5.1,8.2-10.1,12.3-15.2
		H25.5z M70,24.7v15.2H54.6v35.4h19.9V24.7H70z M70,70.1H59.3v-25H70V70.1z"/>
</g>
<path id="Shield" class="st7" d="M7.4,52h85.1c3.8,0,6.9,2.5,6.9,5.5l0,0c0,3-3.1,5.5-6.9,5.5H7.4c-3.8,0-6.9-2.5-6.9-5.5l0,0
	C0.5,54.5,3.6,52,7.4,52z"/>
<text transform="matrix(1 0 0 1 3.116 60.7797)" class="st8 st9 st10">GAME MACHINE</text>
</svg>
